# xmcd
#
# Track frame offsets:
#	150
#	16044
#	37941
#	52090
#	70788
#	91288
#	108848
#	122532
#	135985
#	149791
#	164894
#	181901
#
# Disc length: 2685 seconds
#
# Revision: 1
# Processed by: cddbd v1.5.2PL0 Copyright (c) Steve Scherf et al.
# Submitted via: EasyCDDAExtractor 10.5.1.1
#
DISCID=a00a7b0c
DTITLE=Rune Rudberg - Fri Som En Vind [3 Cd - Cd 2]
DYEAR=2003
DGENRE=Danseband
TTITLE0=Vi Overlever Regnet
TTITLE1=Farvel Marita
TTITLE2=Maria
TTITLE3=Alt Jeg Tenkte På
TTITLE4=Skal Vi Gå Hjem Til Deg?
TTITLE5=Mellom Drøm Og Virkelighet
TTITLE6=Vi
TTITLE7=Hvis Vi All Tar I
TTITLE8=Varme Overalt
TTITLE9=Tidevannsbølger
TTITLE10=Borte Bra, Men Hjemme..
TTITLE11=Lysene Fra Land
EXTD=Samleplate CD2
EXTT0=
EXTT1=
EXTT2=
EXTT3=
EXTT4=
EXTT5=
EXTT6=
EXTT7=
EXTT8=
EXTT9=
EXTT10=
EXTT11=
PLAYORDER=
